<?xml version="1.0" standalone="no"?>
<!DOCTYPE svg PUBLIC "-//W3C//DTD SVG 20010904//EN"
 "http://www.w3.org/TR/2001/REC-SVG-20010904/DTD/svg10.dtd">
<svg version="1.0" xmlns="http://www.w3.org/2000/svg"
 width="388.000000pt" height="333.000000pt" viewBox="0 0 388.000000 333.000000"
 preserveAspectRatio="xMidYMid meet">

<g transform="translate(0.000000,333.000000) scale(0.100000,-0.100000)"
fill="#000000" stroke="none">
<path d="M0 1665 l0 -1665 1940 0 1940 0 0 1665 0 1665 -1940 0 -1940 0 0
-1665z m511 -87 c156 -283 633 -1125 644 -1137 15 -15 7 -26 149 227 47 85 86
158 86 163 0 9 -92 174 -318 574 -46 83 -98 174 -114 203 l-29 52 118 0 118 0
105 -187 c58 -102 116 -207 130 -232 67 -121 102 -181 110 -186 8 -5 42 53
250 423 l102 182 53 0 54 0 109 -192 c60 -106 137 -244 172 -305 34 -62 65
-113 69 -113 3 0 83 138 176 305 l170 305 118 0 c64 0 117 -1 117 -3 0 -2
-103 -187 -230 -412 -127 -224 -230 -411 -230 -414 0 -3 51 -97 114 -209 l114
-204 84 149 c46 81 203 360 348 620 l265 472 228 1 c125 0 227 -3 227 -6 0 -3
-43 -83 -96 -177 -53 -95 -136 -242 -184 -327 -47 -85 -136 -243 -197 -350
-60 -107 -125 -222 -143 -255 -18 -33 -36 -64 -40 -70 -4 -5 -23 -39 -43 -75
-19 -36 -76 -137 -125 -225 l-90 -160 -292 0 -292 0 -155 275 c-86 151 -174
309 -197 350 -23 41 -45 75 -50 75 -8 0 -396 -683 -396 -697 0 -5 -132 -8
-293 -8 l-293 0 -116 207 c-64 115 -265 472 -447 795 -181 323 -337 601 -346
618 l-16 30 228 0 228 0 46 -82z"/>
</g>
</svg>
