<svg version="1.1" id="Layer_1" xmlns="http://www.w3.org/2000/svg" xmlns:xlink="http://www.w3.org/1999/xlink" x="0px" y="0px"
	 width="100%" viewBox="0 0 388 333" enable-background="new 0 0 388 333" xml:space="preserve">
<path fill="#0D5EAA" opacity="1.000000" stroke="none" 
	d="
M1.000000,169.000000 
	C1.000000,168.250000 1.000000,167.500000 1.249148,166.144577 
	C20.301849,132.267792 39.093639,98.989769 57.913185,65.727448 
	C69.940819,44.469391 82.009499,23.234560 94.522400,2.015901 
	C114.012703,1.988915 133.040390,1.935343 152.331696,2.102936 
	C165.744751,25.391464 178.894180,48.458828 192.582565,72.471680 
	C206.115677,48.584335 219.063599,25.729893 232.402466,2.750356 
	C252.045013,2.564137 271.296631,2.499647 290.548279,2.461573 
	C291.021912,2.460636 291.496094,2.752747 292.155792,3.204298 
	C316.934906,47.173607 341.559540,90.829254 366.099365,134.532516 
	C372.116638,145.248688 377.856842,156.120438 383.284119,167.015533 
	C367.753357,167.060989 352.662842,167.011581 337.407776,167.049591 
	C337.243164,167.137009 336.880157,167.053864 336.933899,166.708649 
	C336.071533,164.780624 335.155426,163.197830 334.189209,161.447357 
	C334.139160,161.279694 333.914551,161.011307 333.874939,160.681641 
	C332.891571,158.901031 331.947784,157.450104 330.933167,155.682114 
	C330.192963,154.254593 329.523590,153.144104 328.817902,151.697525 
	C327.582062,149.473892 326.382599,147.586365 325.137817,145.516510 
	C325.092560,145.334183 324.879517,145.024719 324.837891,144.675385 
	C322.553741,140.530045 320.311218,136.734070 318.035767,132.969666 
	C318.002869,133.001221 318.073273,132.940826 318.039612,132.618439 
	C317.410675,131.413895 316.815369,130.531723 316.173950,129.475128 
	C316.127838,129.300705 315.909088,129.013687 315.874939,128.682648 
	C314.893524,126.902916 313.946228,125.454224 312.912415,123.674431 
	C311.803986,121.561256 310.782074,119.779198 309.731689,117.769669 
	C309.571686,117.243080 309.351013,117.041649 309.023438,116.967560 
	C309.005737,116.997208 309.060028,116.954399 309.010895,116.602295 
	C307.314240,113.494019 305.666718,110.737854 303.953796,107.703873 
	C303.576385,106.955208 303.264282,106.484352 302.912842,105.680161 
	C301.933716,103.872345 300.993958,102.397865 299.963074,100.614136 
	C299.213013,99.209206 298.554108,98.113533 297.865997,96.751038 
	C297.602997,96.222412 297.369141,95.960617 297.090271,95.517670 
	C297.045227,95.336517 296.825623,95.034599 296.791992,94.729172 
	C296.182709,93.599724 295.607086,92.775688 294.967194,91.675049 
	C294.584320,90.936951 294.265686,90.475464 293.901917,89.671326 
	C292.557037,87.225105 291.257324,85.121529 289.894043,82.740005 
	C289.522675,81.987152 289.214905,81.512238 288.876648,80.703445 
	C287.906860,78.902107 286.967560,77.434631 285.936218,75.653671 
	C285.167511,74.225441 284.490814,73.110703 283.789185,71.747421 
	C283.541443,71.260887 283.318665,71.022881 283.034912,70.522758 
	C282.674255,69.823318 282.374512,69.386002 282.037750,68.628372 
	C281.393066,67.438766 280.785370,66.569489 280.122620,65.519257 
	C280.067535,65.338310 279.836334,65.038872 279.815521,64.705399 
	C278.876129,62.895206 277.957581,61.418480 276.971436,59.667141 
	C276.585358,58.932507 276.266815,58.472481 275.911865,57.679352 
	C274.945801,55.875027 274.016113,54.403801 273.044739,52.956226 
	C273.003021,52.979874 273.083344,52.921806 273.033813,52.569443 
	C271.496216,49.527817 270.008148,46.838551 268.078491,43.351200 
	C267.040436,45.179001 266.523346,46.089531 265.797974,47.189301 
	C265.371216,47.889671 265.152710,48.400795 264.656647,49.092335 
	C263.604797,50.855125 262.830505,52.437504 261.858765,54.220612 
	C261.429077,54.927750 261.196869,55.434151 260.692535,56.140495 
	C258.928253,59.210442 257.436127,62.080444 255.971680,64.975067 
	C255.999390,64.999695 255.945099,64.951332 255.662415,65.120247 
	C254.804398,66.466599 254.229050,67.644028 253.487442,68.983582 
	C253.139389,69.405891 253.033264,69.693962 252.820831,70.116699 
	C252.415039,70.432701 252.324753,70.688957 252.231964,71.216644 
	C252.049622,71.609726 252.003326,71.778427 251.719604,72.127487 
	C251.280243,72.855911 251.078308,73.403992 250.915543,73.953293 
	C250.954697,73.954521 250.895142,73.903641 250.637390,74.079620 
	C249.937469,75.176048 249.495316,76.096497 248.827332,77.250732 
	C248.023468,78.644325 247.445389,79.804123 246.604492,81.146942 
	C246.873169,83.582916 247.404648,85.835854 248.007812,88.356789 
	C248.383224,89.085449 248.686966,89.546127 249.020706,90.355202 
	C250.354553,92.814003 251.658371,94.924393 252.981110,97.017395 
	C253.000000,97.000000 252.960846,97.033363 253.002319,97.379822 
	C254.334747,99.843643 255.625687,101.961006 256.955536,104.038864 
	C256.994446,103.999352 256.908691,104.070816 256.948456,104.408142 
	C257.934113,106.256538 258.880035,107.767616 259.884094,109.465439 
	C259.942230,109.652176 260.179718,109.962982 260.205505,110.272430 
	C260.795044,111.419479 261.358795,112.257072 262.011200,113.403809 
	C262.782135,114.798012 263.464386,115.883064 264.180359,117.277855 
	C264.782471,118.431389 265.350861,119.275185 266.005676,120.426651 
	C266.738068,121.822632 267.384064,122.910934 268.085236,124.347931 
	C270.399902,128.503128 272.659424,132.309647 274.981079,136.387451 
	C275.361694,137.108322 275.680145,137.557892 276.023438,138.329758 
	C276.640961,139.530396 277.233704,140.408737 277.884979,141.471680 
	C277.943512,141.656265 278.185303,141.958832 278.215698,142.265091 
	C278.816132,143.394608 279.386200,144.217850 279.978149,145.020554 
	C280.000000,145.000000 279.953552,145.038651 279.994324,145.374786 
	C280.976074,147.215317 281.917084,148.719711 282.941223,150.530731 
	C283.463562,151.558334 283.902802,152.279312 284.363953,153.212769 
	C284.509888,153.702530 284.715515,153.890656 285.000122,153.994980 
	C284.997559,154.000305 285.007812,153.998352 285.048615,154.344940 
	C286.377625,156.808487 287.665833,158.925430 288.977020,161.021194 
	C289.000000,161.000000 288.952026,161.039780 288.995300,161.383667 
	C289.673279,163.412094 290.308014,165.096634 290.488892,166.891388 
	C282.538147,167.013107 275.041290,167.024597 267.341949,166.724335 
	C255.933624,146.519699 244.727783,126.626808 232.875137,105.585693 
	C220.703491,126.966896 209.297943,147.002335 197.446732,167.085388 
	C193.725815,167.102203 190.450562,167.071381 186.974197,166.749420 
	C175.457016,146.460602 164.140961,126.462936 152.307007,105.550026 
	C140.257233,126.851692 128.889038,146.948456 117.084854,167.099060 
	C109.114403,167.052032 101.579956,166.951157 94.017868,166.499420 
	C94.720512,164.659500 95.380966,163.131226 96.191444,161.687134 
	C110.047638,136.998978 123.887680,112.301567 137.841827,87.668823 
	C139.394714,84.927551 139.686996,82.767960 138.004166,79.887192 
	C132.040695,69.678596 126.381363,59.292603 120.572464,48.993183 
	C119.722916,47.486912 118.687187,46.085648 117.240013,43.876064 
	C115.701225,46.342010 114.609077,47.948128 113.659813,49.634666 
	C94.544724,83.595940 75.423248,117.553673 56.367687,151.548340 
	C53.365307,156.904526 50.676250,162.436356 47.439960,167.837967 
	C32.934872,167.610825 18.832312,167.399475 4.729034,167.327576 
	C3.766757,167.322678 2.799147,168.363800 1.625716,168.940903 
	C1.417416,168.963364 1.000000,169.000000 1.000000,169.000000 
z"/>
<path fill="#000102" opacity="1.000000" stroke="none" 
	d="
M383.724426,166.920670 
	C377.856842,156.120438 372.116638,145.248688 366.099365,134.532516 
	C341.559540,90.829254 316.934906,47.173607 292.192474,2.888728 
	C292.028931,1.851359 292.014465,1.425680 292.000000,1.000000 
	C324.306519,1.000000 356.613068,1.000000 388.959778,1.000000 
	C388.959778,111.881142 388.959778,222.762299 388.959778,334.000000 
	C356.646637,334.000000 324.291992,334.000000 291.486755,333.776001 
	C291.036224,333.552032 290.977814,333.106476 291.236450,332.868774 
	C321.728790,278.901276 351.968140,225.174698 382.163879,171.423584 
	C382.929596,170.060547 383.214996,168.427689 383.724426,166.920670 
z"/>
<path fill="#000102" opacity="1.000000" stroke="none" 
	d="
M1.000000,169.468658 
	C1.000000,169.000000 1.417416,168.963364 1.752045,169.284424 
	C3.320135,171.772690 4.562366,173.934937 5.785773,176.107819 
	C35.228020,228.399399 64.668228,280.692139 94.066559,333.236877 
	C94.016205,333.659393 94.008102,333.829681 94.000000,334.000000 
	C63.052647,334.000000 32.105297,334.000000 1.000000,334.000000 
	C1.000000,279.312531 1.000000,224.624924 1.000000,169.468658 
z"/>
<path fill="#000102" opacity="1.000000" stroke="none" 
	d="
M94.059784,1.989317 
	C82.009499,23.234560 69.940819,44.469391 57.913185,65.727448 
	C39.093639,98.989769 20.301849,132.267792 1.249148,165.769577 
	C1.000000,111.093399 1.000000,56.186802 1.000000,1.000000 
	C31.686993,1.000000 62.374836,1.000000 93.516197,1.249148 
	C93.969711,1.498296 94.059784,1.989318 94.059784,1.989317 
z"/>
<path fill="#000304" opacity="1.000000" stroke="none" 
	d="
M233.000000,334.000000 
	C206.312439,334.000000 179.624878,334.000000 152.488434,333.791992 
	C152.039566,333.583984 151.984955,333.169678 152.288971,332.984619 
	C165.787933,309.462708 178.982849,286.125854 192.607559,262.028839 
	C197.053955,269.878021 200.966553,276.809418 204.902267,283.727631 
	C214.269333,300.193054 223.647339,316.652283 232.993835,333.335022 
	C232.966721,333.555969 233.000000,334.000000 233.000000,334.000000 
z"/>
<path fill="#000204" opacity="1.000000" stroke="none" 
	d="
M232.011536,2.875448 
	C219.063599,25.729893 206.115677,48.584335 192.582565,72.471680 
	C178.894180,48.458828 165.744751,25.391464 152.346039,1.880219 
	C152.096756,1.436336 152.000000,1.000000 152.000000,1.000000 
	C178.354233,1.000000 204.708450,1.000000 231.540543,1.313831 
	C232.016113,2.043591 232.013824,2.459520 232.011536,2.875448 
z"/>
<path fill="#013570" opacity="1.000000" stroke="none" 
	d="
M232.402466,2.750357 
	C232.013824,2.459520 232.016113,2.043591 232.009201,1.313831 
	C251.687561,1.000000 271.375122,1.000000 291.531342,1.000000 
	C292.014465,1.425680 292.028931,1.851359 292.006714,2.592610 
	C291.496094,2.752747 291.021912,2.460636 290.548279,2.461573 
	C271.296631,2.499647 252.045013,2.564137 232.402466,2.750357 
z"/>
<path fill="#01374E" opacity="1.000000" stroke="none" 
	d="
M233.468658,334.000000 
	C233.000000,334.000000 232.966721,333.555969 233.454926,333.275879 
	C252.954681,333.032715 271.966248,333.069580 290.977814,333.106476 
	C290.977814,333.106476 291.036224,333.552032 291.018127,333.776001 
	C271.979095,334.000000 252.958206,334.000000 233.468658,334.000000 
z"/>
<path fill="#00364D" opacity="1.000000" stroke="none" 
	d="
M151.984955,333.169678 
	C151.984955,333.169678 152.039566,333.583984 152.019775,333.791992 
	C132.979111,334.000000 113.958214,334.000000 94.468658,334.000000 
	C94.008102,333.829681 94.016205,333.659393 94.524826,333.214172 
	C114.011887,333.016052 132.998413,333.092865 151.984955,333.169678 
z"/>
<path fill="#023571" opacity="1.000000" stroke="none" 
	d="
M151.531342,1.000000 
	C152.000000,1.000000 152.096756,1.436336 152.082413,1.659054 
	C133.040390,1.935343 114.012703,1.988915 94.522400,2.015902 
	C94.059784,1.989318 93.969711,1.498296 93.984856,1.249148 
	C113.020897,1.000000 132.041794,1.000000 151.531342,1.000000 
z"/>
<path fill="#23AAD0" opacity="1.000000" stroke="none" 
	d="
M152.288971,332.984619 
	C132.998413,333.092865 114.011887,333.016052 94.567085,332.961975 
	C64.668228,280.692139 35.228020,228.399399 5.785773,176.107819 
	C4.562366,173.934937 3.320135,171.772690 1.960345,169.261963 
	C2.799147,168.363800 3.766757,167.322678 4.729034,167.327576 
	C18.832312,167.399475 32.934872,167.610825 47.620152,168.157730 
	C71.100609,209.179398 93.998520,249.832306 117.343071,291.278198 
	C124.525467,278.518829 131.008530,266.709625 137.819626,255.092743 
	C139.691254,251.900513 139.409088,249.596725 137.647858,246.502960 
	C123.563568,221.762527 109.649330,196.925125 95.754906,172.077209 
	C94.876984,170.507187 94.601341,168.600403 94.045502,166.850281 
	C101.579956,166.951157 109.114403,167.052032 117.247154,167.432846 
	C129.184631,187.940155 140.523804,208.167526 152.316208,229.203400 
	C164.283493,207.862610 175.729401,187.451584 187.175323,167.040558 
	C190.450562,167.071381 193.725815,167.102203 197.609680,167.394287 
	C209.590225,187.821564 220.962158,207.987564 232.889252,229.138046 
	C244.884613,207.642395 256.214508,187.339249 267.544434,167.036087 
	C275.041290,167.024597 282.538147,167.013107 290.608307,166.938522 
	C291.181610,166.875427 291.355194,167.059494 291.346283,167.295044 
	C291.337372,167.530594 291.544830,167.953918 291.440308,168.293335 
	C291.220612,169.090363 291.105469,169.547958 290.787994,170.096497 
	C290.318909,170.392197 290.227295,170.657455 290.153137,171.178680 
	C289.959930,171.537750 289.924347,171.701355 289.613586,172.047852 
	C288.567291,173.810837 287.796143,175.390915 286.996643,176.976593 
	C286.968262,176.982162 286.993805,177.034103 286.803589,177.125275 
	C286.363403,177.416122 286.281494,177.670044 286.211029,178.193512 
	C286.015045,178.581894 285.975677,178.754959 285.715759,179.020004 
	C285.212372,179.341202 285.123718,179.630051 285.095703,180.170532 
	C284.962219,180.362518 284.885651,180.823868 284.663879,180.933899 
	C284.181213,181.300415 284.096130,181.605881 283.965149,182.217194 
	C282.795593,184.257507 281.847717,186.040939 280.685913,187.944336 
	C280.219086,188.321930 280.136719,188.625824 280.078979,189.147369 
	C279.933075,189.318756 279.842621,189.759750 279.573120,189.931793 
	C278.877502,191.058838 278.451355,192.013840 277.798462,193.162338 
	C277.351624,193.901398 277.131531,194.446960 276.653015,195.123642 
	C276.215210,195.790619 276.035858,196.326492 275.925812,196.927567 
	C275.995117,196.992783 275.864594,196.854080 275.638611,196.959412 
	C275.146179,197.321350 275.059784,197.628616 275.021759,198.136017 
	C274.889984,198.285507 274.825073,198.678772 274.553619,198.859192 
	C273.850281,200.013184 273.418365,200.986771 272.984924,201.968048 
	C272.983368,201.975769 272.972565,201.986160 272.768890,202.078583 
	C272.301636,202.380875 272.209900,202.649460 272.137604,203.171112 
	C271.985199,203.365463 271.885193,203.849197 271.666870,203.957611 
	C271.188568,204.317581 271.104919,204.618256 271.062439,205.140594 
	C270.927307,205.313187 270.854767,205.745544 270.622986,205.879974 
	C270.295166,206.348190 270.199097,206.681961 270.062775,207.028549 
	C270.022491,207.041367 270.048584,207.121780 269.780487,207.297058 
	C268.990417,208.630478 268.468445,209.788635 267.973846,210.972153 
	C268.001221,210.997513 267.950409,210.941193 267.725647,211.030045 
	C267.210907,211.349197 267.122284,211.640732 267.102417,212.179260 
	C266.969727,212.365005 266.904022,212.816818 266.676331,212.925964 
	C266.355957,213.345718 266.263275,213.656326 266.030579,214.118668 
	C265.890533,214.270386 265.802124,214.673752 265.562317,214.808777 
	C265.229431,215.286713 265.136383,215.629623 264.826508,216.218811 
	C264.032562,217.632217 263.455444,218.799301 262.615967,220.126984 
	C261.932190,221.197754 261.510742,222.107941 261.051178,223.031616 
	C261.013062,223.045074 261.040344,223.121170 260.769958,223.310760 
	C259.618195,225.293076 258.736847,227.085800 257.909119,228.908813 
	C257.962738,228.939117 257.879089,228.848694 257.652222,228.952026 
	C257.175140,229.319885 257.090546,229.629639 257.040039,230.125122 
	C256.908447,230.265625 256.837372,230.644058 256.597717,230.791504 
	C256.261627,231.290176 256.165192,231.641418 255.851776,232.189423 
	C255.417267,232.919052 255.199722,233.451904 254.779877,234.080414 
	C254.319366,234.390274 254.229630,234.660477 254.154480,235.177917 
	C254.000595,235.369156 253.900146,235.849716 253.633240,236.015091 
	C252.946747,237.119797 252.527161,238.059113 251.889954,239.205856 
	C251.440918,239.955734 251.209488,240.498199 250.714401,241.225067 
	C249.922424,242.569870 249.394104,243.730255 248.915649,244.914062 
	C248.965530,244.937469 248.889343,244.857864 248.665070,244.962402 
	C248.181122,245.321365 248.090698,245.625992 248.032471,246.113770 
	C247.895432,246.246658 247.810959,246.618988 247.569931,246.765305 
	C247.232956,247.264252 247.137024,247.616898 246.820358,248.208984 
	C246.731735,250.396301 246.250763,252.675140 247.094818,254.238647 
	C252.854660,264.907684 258.883148,275.431946 264.852753,285.987244 
	C265.700592,287.486328 266.698822,288.900391 267.919983,290.811646 
	C269.161621,288.774292 270.054016,287.403168 270.855499,285.980804 
	C281.457916,267.164978 292.081848,248.361130 302.630951,229.515427 
	C313.497559,210.102524 324.288147,190.647049 335.343872,171.095306 
	C335.665741,170.661301 335.755737,170.342224 336.073730,169.752548 
	C336.725250,168.642014 337.148804,167.802094 337.572357,166.962173 
	C352.662842,167.011581 367.753357,167.060989 383.284119,167.015533 
	C383.214996,168.427689 382.929596,170.060547 382.163879,171.423584 
	C351.968140,225.174698 321.728790,278.901276 291.236450,332.868774 
	C271.966248,333.069580 252.954681,333.032715 233.482025,333.054932 
	C223.647339,316.652283 214.269333,300.193054 204.902267,283.727631 
	C200.966553,276.809418 197.053955,269.878021 192.607559,262.028839 
	C178.982849,286.125854 165.787933,309.462708 152.288971,332.984619 
z"/>
<path fill="#010205" opacity="1.000000" stroke="none" 
	d="
M94.017868,166.499435 
	C94.601341,168.600403 94.876984,170.507187 95.754906,172.077209 
	C109.649330,196.925125 123.563568,221.762527 137.647858,246.502960 
	C139.409088,249.596725 139.691254,251.900513 137.819626,255.092743 
	C131.008530,266.709625 124.525467,278.518829 117.343071,291.278198 
	C93.998520,249.832306 71.100609,209.179398 48.022511,168.206726 
	C50.676250,162.436356 53.365307,156.904526 56.367687,151.548340 
	C75.423248,117.553673 94.544724,83.595940 113.659813,49.634666 
	C114.609077,47.948128 115.701225,46.342010 117.240013,43.876064 
	C118.687187,46.085648 119.722916,47.486912 120.572464,48.993183 
	C126.381363,59.292603 132.040695,69.678596 138.004166,79.887192 
	C139.686996,82.767960 139.394714,84.927551 137.841827,87.668823 
	C123.887680,112.301567 110.047638,136.998978 96.191444,161.687134 
	C95.380966,163.131226 94.720512,164.659500 94.017868,166.499435 
z"/>
<path fill="#000203" opacity="1.000000" stroke="none" 
	d="
M271.885193,203.849197 
	C271.885193,203.849197 271.985199,203.365463 272.314789,203.056305 
	C272.857117,202.538086 272.966522,202.284409 272.972565,201.986160 
	C272.972565,201.986160 272.983368,201.975769 273.293976,201.825790 
	C274.011414,200.676804 274.418243,199.677795 274.825073,198.678772 
	C274.825073,198.678772 274.889984,198.285507 275.195801,197.985504 
	C275.716309,197.449280 275.837311,197.172134 275.864594,196.854080 
	C275.864594,196.854080 275.995117,196.992783 276.164337,196.890121 
	C276.526184,196.189148 276.718842,195.590851 276.911438,194.992538 
	C277.131531,194.446960 277.351624,193.901398 278.102661,193.025406 
	C279.036621,191.716568 279.439606,190.738159 279.842621,189.759750 
	C279.842621,189.759750 279.933075,189.318756 280.255798,188.997986 
	C280.787994,188.431503 280.895111,188.147232 280.899841,187.824387 
	C281.847717,186.040939 282.795593,184.257507 284.138916,182.066956 
	C284.746704,181.421219 284.863800,181.142548 284.885651,180.823868 
	C284.885651,180.823868 284.962219,180.362518 285.270447,180.037994 
	C285.791870,179.494446 285.911072,179.232635 285.936310,178.928040 
	C285.975677,178.754959 286.015045,178.581894 286.377594,178.084015 
	C286.895752,177.556824 286.993408,177.315140 286.993805,177.034103 
	C286.993805,177.034103 286.968262,176.982162 287.334625,176.875916 
	C288.430267,175.134750 289.159515,173.499863 289.888794,171.864960 
	C289.924347,171.701355 289.959930,171.537750 290.328979,171.065857 
	C290.871796,170.550522 290.981079,170.299850 290.990326,170.005554 
	C291.105469,169.547958 291.220612,169.090363 291.599121,168.201309 
	C291.968781,167.535095 292.040192,167.290131 292.201721,166.762512 
	C291.201874,164.673309 290.076935,162.856552 288.952026,161.039780 
	C288.952026,161.039780 289.000000,161.000000 288.975647,160.643768 
	C287.636810,158.191147 286.322296,156.094757 285.007812,153.998352 
	C285.007812,153.998352 284.997559,154.000305 284.940735,153.799408 
	C284.761841,153.346085 284.581207,153.146667 284.342041,153.000275 
	C283.902802,152.279312 283.463562,151.558334 282.970398,150.147537 
	C281.928833,147.984695 280.941193,146.511673 279.953552,145.038651 
	C279.953552,145.038651 280.000000,145.000000 279.973511,144.697861 
	C279.359772,143.583420 278.772552,142.771118 278.185303,141.958832 
	C278.185303,141.958832 277.943512,141.656265 277.894897,141.124603 
	C277.230408,139.731125 276.614502,138.869293 275.998627,138.007462 
	C275.680145,137.557892 275.361694,137.108322 275.001892,135.995422 
	C272.650391,131.554459 270.340240,127.776848 268.030090,123.999237 
	C267.384064,122.910934 266.738068,121.822632 266.004944,120.097740 
	C265.327454,118.630142 264.737061,117.799126 264.146637,116.968109 
	C263.464386,115.883064 262.782135,114.798012 262.011688,113.078415 
	C261.342255,111.616905 260.760986,110.789940 260.179718,109.962982 
	C260.179718,109.962982 259.942230,109.652176 259.899750,109.090012 
	C258.874420,107.042160 257.891571,105.556488 256.908691,104.070816 
	C256.908691,104.070816 256.994446,103.999352 256.956726,103.659073 
	C255.599594,101.223656 254.280228,99.128510 252.960846,97.033363 
	C252.960846,97.033363 253.000000,97.000000 252.992508,96.639465 
	C251.653580,94.188217 250.322128,92.097504 248.990692,90.006798 
	C248.686966,89.546127 248.383224,89.085449 248.033966,87.936874 
	C247.614731,85.153946 247.241013,83.058937 246.867310,80.963921 
	C247.445389,79.804123 248.023468,78.644325 249.123749,77.115562 
	C250.062347,75.798950 250.478745,74.851295 250.895142,73.903641 
	C250.895142,73.903641 250.954697,73.954521 251.132523,73.753708 
	C251.525909,73.017639 251.741470,72.482384 251.957031,71.947128 
	C252.003326,71.778427 252.049622,71.609726 252.384445,71.087234 
	C252.854462,70.524887 252.964386,70.283707 253.002777,70.009903 
	C253.033264,69.693962 253.139389,69.405891 253.827835,68.887299 
	C254.871368,67.403038 255.408234,66.177185 255.945099,64.951332 
	C255.945099,64.951332 255.999390,64.999695 256.311066,64.894806 
	C258.070068,61.840134 259.517365,58.890343 260.964661,55.940548 
	C261.196869,55.434151 261.429077,54.927750 262.172852,54.089546 
	C263.434326,52.142471 264.184265,50.527199 264.934204,48.911926 
	C265.152710,48.400795 265.371216,47.889671 266.101135,47.348740 
	C268.769440,49.186558 270.926392,51.054184 273.083344,52.921810 
	C273.083344,52.921806 273.003021,52.979874 273.022217,53.326363 
	C274.010406,55.119385 274.979340,56.565918 275.948273,58.012451 
	C276.266815,58.472481 276.585358,58.932507 276.971558,60.022354 
	C277.971619,62.114414 278.903961,63.576641 279.836334,65.038872 
	C279.836334,65.038872 280.067535,65.338310 280.111359,65.870285 
	C280.795044,67.251068 281.434875,68.099876 282.074738,68.948685 
	C282.374512,69.386002 282.674255,69.823318 283.099487,70.754478 
	C283.358948,71.546707 283.555328,71.795921 283.814148,71.995956 
	C284.490814,73.110703 285.167511,74.225441 285.918823,76.037277 
	C286.964691,78.168686 287.935883,79.603004 288.907104,81.037323 
	C289.214905,81.512238 289.522675,81.987152 289.758118,83.000702 
	C291.106171,85.697548 292.526611,87.855759 293.947083,90.013969 
	C294.265686,90.475464 294.584320,90.936951 294.972961,91.998650 
	C295.637177,93.410767 296.231384,94.222687 296.825623,95.034607 
	C296.825623,95.034599 297.045227,95.336517 297.160614,95.767303 
	C297.482391,96.471352 297.688782,96.744606 297.895172,97.017853 
	C298.554108,98.113533 299.213013,99.209206 299.965515,100.972893 
	C301.023438,103.098442 301.987823,104.555969 302.952209,106.013496 
	C303.264282,106.484352 303.576385,106.955208 303.944946,108.084213 
	C305.687653,111.479713 307.373840,114.217056 309.060028,116.954399 
	C309.060028,116.954399 309.005737,116.997208 309.089050,117.177582 
	C309.307343,117.627090 309.503296,117.840141 309.760193,117.997131 
	C310.782074,119.779198 311.803986,121.561256 312.921021,124.027321 
	C313.980469,126.145447 314.944794,127.579567 315.909088,129.013687 
	C315.909088,129.013687 316.127838,129.300705 316.157898,129.828094 
	C316.816406,131.217270 317.444824,132.079041 318.073273,132.940826 
	C318.073273,132.940826 318.002869,133.001221 318.036804,133.346497 
	C320.340332,137.469437 322.609924,141.247086 324.879517,145.024719 
	C324.879517,145.024719 325.092560,145.334183 325.115906,145.896606 
	C326.377594,148.317230 327.615906,150.175430 328.854248,152.033630 
	C329.523590,153.144104 330.192963,154.254593 330.790497,155.935867 
	C331.783966,158.008209 332.849243,159.509766 333.914551,161.011307 
	C333.914551,161.011307 334.139160,161.279694 334.159973,161.824890 
	C335.080597,163.931335 335.980377,165.492599 336.880157,167.053864 
	C336.880157,167.053864 337.243164,167.137009 337.407776,167.049591 
	C337.148804,167.802094 336.725250,168.642014 335.895935,169.912766 
	C335.270660,170.591644 335.144592,170.880524 335.112000,171.210220 
	C324.288147,190.647049 313.497559,210.102524 302.630951,229.515427 
	C292.081848,248.361130 281.457916,267.164978 270.855499,285.980804 
	C270.054016,287.403168 269.161621,288.774292 267.919983,290.811646 
	C266.698822,288.900391 265.700592,287.486328 264.852753,285.987244 
	C258.883148,275.431946 252.854660,264.907684 247.094818,254.238647 
	C246.250763,252.675140 246.731735,250.396301 247.004059,248.018463 
	C247.542664,247.265305 247.676819,246.942154 247.810959,246.618988 
	C247.810959,246.618988 247.895432,246.246658 248.209503,245.967194 
	C248.741165,245.453262 248.863083,245.176651 248.889343,244.857864 
	C248.889343,244.857864 248.965530,244.937469 249.233932,244.794647 
	C249.994247,243.448105 250.486160,242.244385 250.978058,241.040680 
	C251.209488,240.498199 251.440918,239.955734 252.185120,239.069397 
	C253.098648,237.766922 253.499405,236.808319 253.900146,235.849716 
	C253.900146,235.849716 254.000595,235.369156 254.331207,235.060837 
	C254.870987,234.539337 254.977768,234.283417 254.982178,233.984772 
	C255.199722,233.451904 255.417267,232.919052 256.038269,232.001404 
	C256.573608,231.292419 256.705475,230.968231 256.837341,230.644058 
	C256.837372,230.644058 256.908447,230.265625 257.213867,229.974136 
	C257.734650,229.445847 257.854584,229.167862 257.879089,228.848694 
	C257.879089,228.848694 257.962738,228.939117 258.244812,228.815262 
	C259.364716,226.834656 260.202545,224.977921 261.040344,223.121170 
	C261.040344,223.121170 261.013062,223.045074 261.332611,222.964020 
	C262.060883,221.910797 262.469604,220.938599 262.878296,219.966400 
	C263.455444,218.799301 264.032562,217.632217 265.006256,216.035980 
	C265.535919,215.295807 265.669037,214.984787 265.802124,214.673752 
	C265.802124,214.673752 265.890533,214.270386 266.211792,213.968948 
	C266.755310,213.426941 266.878967,213.143387 266.904022,212.816818 
	C266.904022,212.816818 266.969727,212.365005 267.279846,212.048004 
	C267.805267,211.511154 267.925415,211.247894 267.950409,210.941193 
	C267.950409,210.941193 268.001221,210.997513 268.283264,210.846832 
	C269.059723,209.504715 269.554169,208.313248 270.048584,207.121780 
	C270.048584,207.121780 270.022491,207.041367 270.246552,206.854767 
	C270.598663,206.360611 270.726715,206.053085 270.854767,205.745544 
	C270.854767,205.745544 270.927307,205.313187 271.235382,204.993866 
	C271.753510,204.439240 271.867432,204.164124 271.885193,203.849197 
z"/>
<path fill="#010205" opacity="1.000000" stroke="none" 
	d="
M186.974182,166.749420 
	C175.729401,187.451584 164.283493,207.862610 152.316208,229.203400 
	C140.523804,208.167526 129.184631,187.940155 117.683151,167.378998 
	C128.889038,146.948456 140.257233,126.851692 152.307007,105.550026 
	C164.140961,126.462936 175.457016,146.460602 186.974182,166.749420 
z"/>
<path fill="#010205" opacity="1.000000" stroke="none" 
	d="
M267.341949,166.724335 
	C256.214508,187.339249 244.884613,207.642395 232.889252,229.138046 
	C220.962158,207.987564 209.590225,187.821564 198.055359,167.346664 
	C209.297943,147.002335 220.703491,126.966896 232.875137,105.585693 
	C244.727783,126.626808 255.933624,146.519699 267.341949,166.724335 
z"/>
<path fill="#011026" opacity="1.000000" stroke="none" 
	d="
M268.085236,124.347931 
	C270.340240,127.776848 272.650391,131.554459 274.939728,135.724121 
	C272.659424,132.309647 270.399902,128.503128 268.085236,124.347931 
z"/>
<path fill="#011026" opacity="1.000000" stroke="none" 
	d="
M273.033813,52.569450 
	C270.926392,51.054184 268.769440,49.186558 266.309387,47.159496 
	C266.523346,46.089531 267.040436,45.179001 268.078491,43.351200 
	C270.008148,46.838551 271.496216,49.527817 273.033813,52.569450 
z"/>
<path fill="#011026" opacity="1.000000" stroke="none" 
	d="
M324.837891,144.675385 
	C322.609924,141.247086 320.340332,137.469437 318.069702,133.314941 
	C320.311218,136.734070 322.553741,140.530045 324.837891,144.675385 
z"/>
<path fill="#011026" opacity="1.000000" stroke="none" 
	d="
M260.692535,56.140495 
	C259.517365,58.890343 258.070068,61.840134 256.283356,64.870186 
	C257.436127,62.080444 258.928253,59.210442 260.692535,56.140495 
z"/>
<path fill="#011026" opacity="1.000000" stroke="none" 
	d="
M309.010895,116.602295 
	C307.373840,114.217056 305.687653,111.479713 304.010315,108.362030 
	C305.666718,110.737854 307.314240,113.494019 309.010895,116.602295 
z"/>
<path fill="#011026" opacity="1.000000" stroke="none" 
	d="
M246.604492,81.146942 
	C247.241013,83.058937 247.614731,85.153946 247.962280,87.668884 
	C247.404648,85.835854 246.873169,83.582916 246.604492,81.146942 
z"/>
<path fill="#011026" opacity="1.000000" stroke="none" 
	d="
M293.901917,89.671326 
	C292.526611,87.855759 291.106171,85.697548 289.821655,83.278641 
	C291.257324,85.121529 292.557037,87.225105 293.901917,89.671326 
z"/>
<path fill="#011026" opacity="1.000000" stroke="none" 
	d="
M285.048615,154.344940 
	C286.322296,156.094757 287.636810,158.191147 288.952667,160.664978 
	C287.665833,158.925430 286.377625,156.808487 285.048615,154.344940 
z"/>
<path fill="#011026" opacity="1.000000" stroke="none" 
	d="
M253.002319,97.379822 
	C254.280228,99.128510 255.599594,101.223656 256.917786,103.698593 
	C255.625687,101.961006 254.334747,99.843643 253.002319,97.379822 
z"/>
<path fill="#011026" opacity="1.000000" stroke="none" 
	d="
M249.020706,90.355202 
	C250.322128,92.097504 251.653580,94.188217 252.973602,96.656860 
	C251.658371,94.924393 250.354553,92.814003 249.020706,90.355202 
z"/>
<path fill="#011026" opacity="1.000000" stroke="none" 
	d="
M328.817871,151.697540 
	C327.615906,150.175430 326.377594,148.317230 325.161194,146.078918 
	C326.382599,147.586365 327.582062,149.473892 328.817871,151.697540 
z"/>
<path fill="#011026" opacity="1.000000" stroke="none" 
	d="
M333.874939,160.681641 
	C332.849243,159.509766 331.783966,158.008209 330.861328,156.252914 
	C331.947784,157.450104 332.891571,158.901031 333.874939,160.681641 
z"/>
<path fill="#011026" opacity="1.000000" stroke="none" 
	d="
M288.995300,161.383667 
	C290.076935,162.856552 291.201874,164.673309 292.020020,166.731873 
	C291.713257,166.973648 291.355194,167.059494 291.355194,167.059494 
	C291.355194,167.059494 291.181610,166.875427 291.062195,166.828308 
	C290.308014,165.096634 289.673279,163.412094 288.995300,161.383667 
z"/>
<path fill="#011026" opacity="1.000000" stroke="none" 
	d="
M288.876648,80.703453 
	C287.935883,79.603004 286.964691,78.168686 286.010864,76.350761 
	C286.967560,77.434631 287.906860,78.902107 288.876648,80.703453 
z"/>
<path fill="#011026" opacity="1.000000" stroke="none" 
	d="
M279.994324,145.374786 
	C280.941193,146.511673 281.928833,147.984695 282.887268,149.840912 
	C281.917084,148.719711 280.976074,147.215317 279.994324,145.374786 
z"/>
<path fill="#011026" opacity="1.000000" stroke="none" 
	d="
M275.911865,57.679352 
	C274.979340,56.565918 274.010406,55.119385 273.063934,53.302715 
	C274.016113,54.403801 274.945801,55.875027 275.911865,57.679352 
z"/>
<path fill="#011026" opacity="1.000000" stroke="none" 
	d="
M279.815521,64.705399 
	C278.903961,63.576641 277.971619,62.114414 277.039124,60.296967 
	C277.957581,61.418480 278.876129,62.895206 279.815521,64.705399 
z"/>
<path fill="#011026" opacity="1.000000" stroke="none" 
	d="
M315.874939,128.682648 
	C314.944794,127.579567 313.980469,126.145447 313.007568,124.358429 
	C313.946228,125.454224 314.893524,126.902916 315.874939,128.682648 
z"/>
<path fill="#011026" opacity="1.000000" stroke="none" 
	d="
M336.933899,166.708649 
	C335.980377,165.492599 335.080597,163.931335 334.210052,161.992554 
	C335.155426,163.197830 336.071533,164.780624 336.933899,166.708649 
z"/>
<path fill="#011026" opacity="1.000000" stroke="none" 
	d="
M256.948456,104.408142 
	C257.891571,105.556488 258.874420,107.042160 259.841614,108.903267 
	C258.880035,107.767616 257.934113,106.256538 256.948456,104.408142 
z"/>
<path fill="#011026" opacity="1.000000" stroke="none" 
	d="
M302.912842,105.680161 
	C301.987823,104.555969 301.023438,103.098442 300.056641,101.282150 
	C300.993958,102.397865 301.933716,103.872345 302.912842,105.680161 
z"/>
<path fill="#011026" opacity="1.000000" stroke="none" 
	d="
M264.656647,49.092339 
	C264.184265,50.527199 263.434326,52.142471 262.370300,53.888809 
	C262.830505,52.437504 263.604797,50.855125 264.656647,49.092339 
z"/>
<path fill="#011026" opacity="1.000000" stroke="none" 
	d="
M255.662415,65.120247 
	C255.408234,66.177185 254.871368,67.403038 253.994110,68.725182 
	C254.229050,67.644028 254.804398,66.466599 255.662415,65.120247 
z"/>
<path fill="#011026" opacity="1.000000" stroke="none" 
	d="
M296.791992,94.729179 
	C296.231384,94.222687 295.637177,93.410767 295.037231,92.275253 
	C295.607086,92.775688 296.182709,93.599724 296.791992,94.729179 
z"/>
<path fill="#011026" opacity="1.000000" stroke="none" 
	d="
M250.637390,74.079620 
	C250.478745,74.851295 250.062347,75.798950 249.349548,76.881775 
	C249.495316,76.096497 249.937469,75.176048 250.637390,74.079620 
z"/>
<path fill="#011026" opacity="1.000000" stroke="none" 
	d="
M260.205505,110.272430 
	C260.760986,110.789940 261.342255,111.616905 261.923004,112.769272 
	C261.358795,112.257072 260.795044,111.419479 260.205505,110.272430 
z"/>
<path fill="#011026" opacity="1.000000" stroke="none" 
	d="
M264.180359,117.277847 
	C264.737061,117.799126 265.327454,118.630142 265.918579,119.790070 
	C265.350861,119.275185 264.782471,118.431389 264.180359,117.277847 
z"/>
<path fill="#011026" opacity="1.000000" stroke="none" 
	d="
M282.037750,68.628372 
	C281.434875,68.099876 280.795044,67.251068 280.166443,66.051231 
	C280.785370,66.569489 281.393066,67.438766 282.037750,68.628372 
z"/>
<path fill="#011026" opacity="1.000000" stroke="none" 
	d="
M318.039612,132.618439 
	C317.444824,132.079041 316.816406,131.217270 316.204010,130.002533 
	C316.815369,130.531723 317.410675,131.413895 318.039612,132.618439 
z"/>
<path fill="#011026" opacity="1.000000" stroke="none" 
	d="
M276.023438,138.329758 
	C276.614502,138.869293 277.230408,139.731125 277.836365,140.940018 
	C277.233704,140.408737 276.640961,139.530396 276.023438,138.329758 
z"/>
<path fill="#011026" opacity="1.000000" stroke="none" 
	d="
M278.215698,142.265091 
	C278.772552,142.771118 279.359772,143.583420 279.951630,144.718414 
	C279.386200,144.217850 278.816132,143.394608 278.215698,142.265091 
z"/>
<path fill="#011026" opacity="1.000000" stroke="none" 
	d="
M251.719604,72.127480 
	C251.741470,72.482384 251.525909,73.017639 251.093369,73.752480 
	C251.078308,73.403992 251.280243,72.855911 251.719604,72.127480 
z"/>
<path fill="#011026" opacity="1.000000" stroke="none" 
	d="
M284.363953,153.212769 
	C284.581207,153.146667 284.761841,153.346085 284.943298,153.794098 
	C284.715515,153.890656 284.509888,153.702530 284.363953,153.212769 
z"/>
<path fill="#011026" opacity="1.000000" stroke="none" 
	d="
M309.731689,117.769661 
	C309.503296,117.840141 309.307343,117.627090 309.106750,117.147934 
	C309.351013,117.041649 309.571686,117.243080 309.731689,117.769661 
z"/>
<path fill="#011026" opacity="1.000000" stroke="none" 
	d="
M297.865997,96.751038 
	C297.688782,96.744606 297.482391,96.471352 297.205658,95.948456 
	C297.369141,95.960617 297.602997,96.222412 297.865997,96.751038 
z"/>
<path fill="#011026" opacity="1.000000" stroke="none" 
	d="
M283.789185,71.747421 
	C283.555328,71.795921 283.358948,71.546707 283.160400,71.016594 
	C283.318665,71.022881 283.541443,71.260887 283.789185,71.747421 
z"/>
<path fill="#011026" opacity="1.000000" stroke="none" 
	d="
M252.820831,70.116699 
	C252.964386,70.283707 252.854462,70.524887 252.520508,70.862854 
	C252.324753,70.688957 252.415039,70.432701 252.820831,70.116699 
z"/>
<path fill="#011026" opacity="1.000000" stroke="none" 
	d="
M289.613586,172.047852 
	C289.159515,173.499863 288.430267,175.134750 287.363007,176.870331 
	C287.796143,175.390915 288.567291,173.810837 289.613586,172.047852 
z"/>
<path fill="#011026" opacity="1.000000" stroke="none" 
	d="
M260.769958,223.310760 
	C260.202545,224.977921 259.364716,226.834656 258.191193,228.784973 
	C258.736847,227.085800 259.618195,225.293076 260.769958,223.310760 
z"/>
<path fill="#011026" opacity="1.000000" stroke="none" 
	d="
M262.615967,220.126984 
	C262.469604,220.938599 262.060883,221.910797 261.370728,222.950562 
	C261.510742,222.107941 261.932190,221.197754 262.615967,220.126984 
z"/>
<path fill="#011026" opacity="1.000000" stroke="none" 
	d="
M250.714417,241.225067 
	C250.486160,242.244385 249.994247,243.448105 249.184052,244.771240 
	C249.394104,243.730255 249.922424,242.569870 250.714417,241.225067 
z"/>
<path fill="#011026" opacity="1.000000" stroke="none" 
	d="
M269.780518,207.297058 
	C269.554169,208.313248 269.059723,209.504715 268.255859,210.821472 
	C268.468445,209.788635 268.990417,208.630478 269.780518,207.297058 
z"/>
<path fill="#011026" opacity="1.000000" stroke="none" 
	d="
M274.553650,198.859192 
	C274.418243,199.677795 274.011414,200.676804 273.295532,201.818085 
	C273.418365,200.986771 273.850281,200.013184 274.553650,198.859192 
z"/>
<path fill="#011026" opacity="1.000000" stroke="none" 
	d="
M279.573120,189.931793 
	C279.439606,190.738159 279.036621,191.716568 278.329407,192.831909 
	C278.451355,192.013840 278.877502,191.058838 279.573120,189.931793 
z"/>
<path fill="#011026" opacity="1.000000" stroke="none" 
	d="
M253.633240,236.015091 
	C253.499405,236.808319 253.098648,237.766922 252.402740,238.861984 
	C252.527161,238.059113 252.946747,237.119797 253.633240,236.015091 
z"/>
<path fill="#011026" opacity="1.000000" stroke="none" 
	d="
M276.653015,195.123642 
	C276.718842,195.590851 276.526184,196.189148 276.095032,196.824905 
	C276.035858,196.326492 276.215210,195.790619 276.653015,195.123642 
z"/>
<path fill="#011026" opacity="1.000000" stroke="none" 
	d="
M248.665070,244.962402 
	C248.863083,245.176651 248.741165,245.453262 248.346558,245.834290 
	C248.090698,245.625992 248.181122,245.321365 248.665070,244.962402 
z"/>
<path fill="#0D5EAA" opacity="1.000000" stroke="none" 
	d="
M291.346283,167.295044 
	C291.355194,167.059494 291.713257,166.973648 291.894958,167.004303 
	C292.040192,167.290131 291.968781,167.535095 291.703644,167.861877 
	C291.544830,167.953918 291.337372,167.530594 291.346283,167.295044 
z"/>
<path fill="#011026" opacity="1.000000" stroke="none" 
	d="
M267.725647,211.030045 
	C267.925415,211.247894 267.805267,211.511154 267.412506,211.862244 
	C267.122284,211.640732 267.210907,211.349197 267.725647,211.030045 
z"/>
<path fill="#011026" opacity="1.000000" stroke="none" 
	d="
M266.676331,212.925964 
	C266.878967,213.143387 266.755310,213.426941 266.351807,213.817230 
	C266.263275,213.656326 266.355957,213.345718 266.676331,212.925964 
z"/>
<path fill="#011026" opacity="1.000000" stroke="none" 
	d="
M265.562317,214.808777 
	C265.669037,214.984787 265.535919,215.295807 265.223053,215.789673 
	C265.136383,215.629623 265.229431,215.286713 265.562317,214.808777 
z"/>
<path fill="#011026" opacity="1.000000" stroke="none" 
	d="
M257.652222,228.952026 
	C257.854584,229.167862 257.734650,229.445847 257.345459,229.833633 
	C257.090546,229.629639 257.175140,229.319885 257.652222,228.952026 
z"/>
<path fill="#011026" opacity="1.000000" stroke="none" 
	d="
M256.597717,230.791504 
	C256.705475,230.968231 256.573608,231.292419 256.255249,231.804626 
	C256.165192,231.641418 256.261627,231.290176 256.597717,230.791504 
z"/>
<path fill="#011026" opacity="1.000000" stroke="none" 
	d="
M254.779877,234.080414 
	C254.977768,234.283417 254.870987,234.539337 254.485107,234.869598 
	C254.229630,234.660477 254.319366,234.390274 254.779877,234.080414 
z"/>
<path fill="#011026" opacity="1.000000" stroke="none" 
	d="
M247.569931,246.765305 
	C247.676819,246.942154 247.542664,247.265305 247.224792,247.778992 
	C247.137024,247.616898 247.232956,247.264252 247.569931,246.765305 
z"/>
<path fill="#011026" opacity="1.000000" stroke="none" 
	d="
M270.622986,205.879974 
	C270.726715,206.053085 270.598663,206.360611 270.286835,206.841949 
	C270.199097,206.681961 270.295166,206.348190 270.622986,205.879974 
z"/>
<path fill="#011026" opacity="1.000000" stroke="none" 
	d="
M271.666870,203.957611 
	C271.867432,204.164124 271.753510,204.439240 271.370544,204.821289 
	C271.104919,204.618256 271.188568,204.317581 271.666870,203.957611 
z"/>
<path fill="#011026" opacity="1.000000" stroke="none" 
	d="
M272.768890,202.078583 
	C272.966522,202.284409 272.857117,202.538086 272.467194,202.861969 
	C272.209900,202.649460 272.301636,202.380875 272.768890,202.078583 
z"/>
<path fill="#011026" opacity="1.000000" stroke="none" 
	d="
M275.638611,196.959412 
	C275.837311,197.172134 275.716309,197.449280 275.327576,197.836029 
	C275.059784,197.628616 275.146179,197.321350 275.638611,196.959412 
z"/>
<path fill="#011026" opacity="1.000000" stroke="none" 
	d="
M280.685913,187.944336 
	C280.895111,188.147232 280.787994,188.431503 280.401703,188.826584 
	C280.136719,188.625824 280.219086,188.321930 280.685913,187.944336 
z"/>
<path fill="#011026" opacity="1.000000" stroke="none" 
	d="
M284.663879,180.933899 
	C284.863800,181.142548 284.746704,181.421219 284.360596,181.810104 
	C284.096130,181.605881 284.181213,181.300415 284.663879,180.933899 
z"/>
<path fill="#011026" opacity="1.000000" stroke="none" 
	d="
M285.715759,179.020004 
	C285.911072,179.232635 285.791870,179.494446 285.403931,179.846008 
	C285.123718,179.630051 285.212372,179.341202 285.715759,179.020004 
z"/>
<path fill="#011026" opacity="1.000000" stroke="none" 
	d="
M286.803589,177.125275 
	C286.993408,177.315140 286.895752,177.556824 286.534210,177.868698 
	C286.281494,177.670044 286.363403,177.416122 286.803589,177.125275 
z"/>
<path fill="#011026" opacity="1.000000" stroke="none" 
	d="
M335.343872,171.095306 
	C335.144592,170.880524 335.270660,170.591644 335.667969,170.183365 
	C335.755737,170.342224 335.665741,170.661301 335.343872,171.095306 
z"/>
<path fill="#011026" opacity="1.000000" stroke="none" 
	d="
M290.787994,170.096497 
	C290.981079,170.299850 290.871796,170.550522 290.486633,170.870377 
	C290.227295,170.657455 290.318909,170.392197 290.787994,170.096497 
z"/>
</svg>