<?xml version="1.0" standalone="no"?>
<!DOCTYPE svg PUBLIC "-//W3C//DTD SVG 20010904//EN"
 "http://www.w3.org/TR/2001/REC-SVG-20010904/DTD/svg10.dtd">
<svg version="1.0" xmlns="http://www.w3.org/2000/svg"
 width="225.000000pt" height="290.000000pt" viewBox="0 0 225.000000 290.000000"
 preserveAspectRatio="xMidYMid meet">

<g transform="translate(0.000000,290.000000) scale(0.100000,-0.100000)"
fill="#000000" stroke="none">
<path d="M0 2101 c0 -852 1 -874 51 -1036 102 -335 422 -722 783 -949 186
-117 298 -137 436 -78 246 105 570 392 757 672 104 157 168 295 203 444 19 77
20 124 20 914 l0 832 -1125 0 -1125 0 0 -799z m1150 659 c0 -27 4 -40 13 -40
8 0 36 -11 63 -25 l48 -25 28 27 c26 24 30 26 44 12 14 -14 13 -19 -10 -46
l-25 -29 22 -57 c20 -52 25 -57 53 -57 33 0 60 -22 49 -40 -3 -5 -23 -10 -45
-10 -33 0 -39 -3 -45 -27 -3 -16 -14 -43 -22 -61 -15 -32 -15 -34 12 -62 43
-45 5 -72 -41 -29 l-23 21 -44 -21 c-24 -11 -49 -21 -55 -21 -7 0 -12 -14 -12
-34 0 -35 -24 -66 -40 -50 -5 5 -10 25 -12 44 -3 29 -8 35 -33 40 -16 4 -44
14 -61 23 -30 15 -33 15 -49 -3 -20 -23 -51 -26 -58 -7 -2 6 5 22 16 34 l20
23 -20 47 c-12 27 -24 56 -27 65 -3 10 -18 18 -38 20 -25 2 -33 8 -33 23 0 16
8 21 38 23 27 2 37 8 37 20 0 9 9 37 20 60 20 44 20 44 0 70 -19 23 -19 27 -6
41 14 13 18 12 40 -8 24 -23 26 -23 60 -7 19 9 48 19 65 22 28 6 31 10 31 45
0 32 3 39 20 39 17 0 20 -7 20 -40z m-552 -21 c36 -68 -41 -275 -155 -415 -66
-81 -75 -50 -10 35 96 126 165 309 139 366 -15 32 -20 31 -78 -7 -42 -28 -108
-109 -161 -194 -10 -18 -12 -18 -18 -2 -5 12 10 41 45 93 103 149 198 198 238
124z m-260 17 c36 -19 66 -52 57 -66 -4 -7 -19 0 -41 20 -40 35 -78 39 -94 10
-13 -24 -30 -26 -30 -4 0 51 51 70 108 40z m1440 -16 c23 -17 42 -34 42 -38 0
-21 -15 -18 -53 9 -47 34 -83 38 -92 9 -3 -11 -13 -20 -21 -20 -16 0 -11 33 8
58 18 22 73 14 116 -18z m233 8 c7 -13 10 -48 7 -89 -4 -56 -14 -86 -56 -171
-56 -113 -139 -225 -154 -210 -7 7 8 34 41 78 90 118 160 290 145 357 -15 69
-119 2 -204 -132 -25 -39 -48 -71 -52 -71 -30 -1 32 110 106 189 66 71 143 94
167 49z m-1746 -88 c0 -18 -6 -26 -23 -28 -13 -2 -25 3 -28 12 -10 26 4 48 28
44 17 -2 23 -10 23 -28z m1419 8 c14 -22 -12 -52 -37 -42 -17 6 -23 44 -10 58
11 11 35 3 47 -16z m-1199 -65 c35 -49 43 -77 25 -88 -5 -3 -10 -2 -10 3 0 6
-16 33 -35 62 -19 29 -35 56 -35 61 0 21 22 6 55 -38z m1421 -8 c23 -35 34
-60 30 -71 -5 -14 -15 -4 -46 42 -22 32 -40 65 -40 72 0 26 21 10 56 -43z
m-1636 2 c0 -7 17 -46 37 -87 21 -41 39 -78 41 -82 2 -5 -4 -8 -13 -8 -11 0
-28 25 -49 73 -46 100 -51 117 -32 117 9 0 16 -6 16 -13z m168 -5 c2 -7 -7
-12 -23 -12 -24 0 -26 2 -15 15 14 17 31 16 38 -3z m1250 -4 c3 -13 22 -56 43
-96 30 -58 34 -73 21 -70 -30 5 -110 188 -82 188 6 0 14 -10 18 -22z m153 -6
c-28 -4 -40 6 -21 18 9 6 20 4 29 -3 12 -10 11 -13 -8 -15z m-1521 3 c-7 -8
-16 -15 -20 -15 -4 0 -10 7 -14 15 -4 11 2 15 21 15 21 0 24 -2 13 -15z m220
-1 c0 -17 -22 -14 -28 4 -2 7 3 12 12 12 9 0 16 -7 16 -16z m1198 0 c-9 -9
-21 -13 -27 -10 -20 13 -11 26 16 26 25 0 26 -1 11 -16z m222 1 c0 -8 -4 -15
-9 -15 -5 0 -14 7 -21 15 -10 13 -9 15 9 15 12 0 21 -6 21 -15z m-1723 -11 c2
-5 -21 -20 -50 -34 -56 -27 -70 -53 -40 -76 30 -23 133 -51 216 -59 71 -7 91
-15 68 -29 -13 -9 -171 12 -227 30 -60 19 -104 56 -104 88 0 27 32 59 80 80
37 16 52 16 57 0z m1416 2 c4 -9 -9 -19 -38 -30 -98 -38 -89 -82 23 -116 37
-11 102 -23 144 -27 62 -7 76 -11 69 -22 -7 -12 -25 -12 -107 -2 -145 18 -224
57 -224 111 0 31 30 62 80 84 44 19 47 19 53 2z m-978 -19 c41 -23 63 -62 52
-91 -9 -23 -27 -10 -27 18 0 25 -31 51 -74 62 -29 7 -36 34 -8 34 9 0 35 -10
57 -23z m1398 9 c45 -19 79 -59 75 -88 -4 -28 -22 -29 -27 -2 -5 30 -31 53
-73 66 -37 11 -45 18 -31 31 9 10 20 9 56 -7z m-1628 -76 c0 -18 -6 -26 -23
-28 -13 -2 -25 3 -28 12 -10 26 4 48 28 44 17 -2 23 -10 23 -28z m1419 7 c9
-14 7 -21 -7 -32 -33 -24 -71 11 -46 42 15 18 39 13 53 -10z m-1574 -53 c0 -8
-6 -14 -14 -14 -9 0 -12 7 -9 20 6 22 23 18 23 -6z m305 -89 c9 -37 13 -76 9
-88 -10 -33 -35 -57 -59 -57 -22 0 -115 56 -115 69 0 21 17 18 53 -9 23 -17
49 -30 59 -30 40 0 45 68 12 163 -7 20 -10 45 -7 53 9 24 29 -19 48 -101z
m1115 83 c0 -5 -7 -8 -15 -8 -17 0 -18 2 -9 25 5 13 8 14 15 3 5 -7 9 -16 9
-20z m307 -126 c7 -72 -10 -102 -57 -102 -27 0 -110 52 -110 69 0 19 18 20 34
2 23 -25 71 -45 91 -37 20 7 20 77 0 142 -8 27 -12 58 -8 69 9 30 44 -67 50
-143z m-1322 118 c0 -18 -6 -26 -23 -28 -24 -4 -38 18 -28 44 3 9 15 14 28 12
17 -2 23 -10 23 -28z m1420 10 c8 -27 -1 -40 -30 -40 -27 0 -41 26 -24 46 17
20 47 17 54 -6z m-1496 -45 c-6 -6 -13 -5 -19 5 -6 9 -5 17 3 22 15 9 29 -14
16 -27z m1421 1 c-7 -7 -14 -6 -22 2 -10 10 -10 15 2 22 17 11 34 -10 20 -24z
m-1500 -1 c0 -8 -7 -15 -15 -15 -16 0 -20 12 -8 23 11 12 23 8 23 -8z m1420
-6 c0 -5 -10 -9 -21 -9 -18 0 -19 2 -9 15 12 15 30 12 30 -6z m-1697 -58 c-8
-56 3 -91 27 -91 11 0 20 -7 20 -15 0 -22 -36 -19 -60 5 -29 29 -25 140 5 140
9 0 12 -11 8 -39z m1419 -21 c-4 -57 -2 -60 22 -70 32 -12 34 -30 4 -30 -40 0
-58 28 -58 90 0 57 4 70 24 70 7 0 10 -21 8 -60z m-1281 35 c-1 -15 -24 -12
-29 3 -3 9 2 13 12 10 10 -1 17 -7 17 -13z m1419 0 c0 -8 -4 -15 -9 -15 -5 0
-14 7 -21 15 -10 13 -9 15 9 15 12 0 21 -6 21 -15z m-1456 -61 c20 -8 21 -38
2 -53 -19 -16 -46 -3 -46 23 0 34 12 42 44 30z m1426 -9 c15 -18 7 -43 -16
-52 -24 -9 -46 24 -33 48 12 23 32 24 49 4z m-1480 -245 l0 -80 160 0 160 0 0
80 0 80 165 0 165 0 0 -80 0 -80 160 0 160 0 0 80 0 80 170 0 170 0 0 -80 0
-80 155 0 155 0 0 80 0 80 151 0 150 0 -3 -452 -4 -453 -27 -90 c-40 -134
-143 -332 -239 -460 -190 -254 -482 -499 -708 -595 -111 -47 -228 -26 -390 72
-351 213 -664 580 -780 918 -50 147 -52 170 -57 628 l-5 432 146 0 146 0 0
-80z"/>
<path d="M1045 2671 c-78 -36 -115 -95 -115 -183 0 -105 84 -188 189 -188 66
0 108 18 148 63 89 101 60 247 -60 303 -62 29 -108 30 -162 5z m105 -22 c0
-24 -23 -21 -28 4 -2 10 3 17 12 17 10 0 16 -9 16 -21z m-50 -5 c0 -9 -7 -14
-17 -12 -25 5 -28 28 -4 28 12 0 21 -6 21 -16z m103 10 c9 -10 -4 -34 -19 -34
-8 0 -14 9 -14 20 0 19 19 27 33 14z m84 -88 c21 -40 13 -137 -14 -174 -52
-71 -141 -97 -214 -64 -52 23 -95 66 -104 105 -6 23 -4 27 14 27 13 0 26 -11
36 -29 24 -47 62 -71 112 -71 111 0 174 97 126 197 -9 19 -22 37 -29 40 -10 4
-11 10 -3 25 11 20 11 20 36 -4 14 -12 32 -36 40 -52z m-88 18 c109 -91 2
-260 -126 -198 -53 27 -80 82 -64 134 25 85 125 119 190 64z m-189 -5 c0 -5
-9 -9 -20 -9 -13 0 -18 5 -14 14 6 15 34 11 34 -5z m-25 -39 c3 -5 -1 -10 -9
-10 -9 0 -16 5 -16 10 0 6 4 10 9 10 6 0 13 -4 16 -10z m3 -47 c-2 -10 -13
-19 -26 -21 -17 -3 -22 2 -22 17 0 16 6 21 26 21 19 0 25 -5 22 -17z"/>
<path d="M1094 2570 c-46 -18 -69 -85 -41 -121 51 -67 147 -35 147 48 0 31
-28 73 -49 73 -5 0 -15 2 -23 4 -7 3 -23 1 -34 -4z m79 -41 c45 -61 -38 -133
-95 -82 -26 23 -24 78 5 98 30 22 66 15 90 -16z"/>
<path d="M1705 1870 c-19 -36 -41 -48 -118 -66 -35 -9 -75 -27 -97 -44 -51
-40 -81 -50 -155 -50 -73 0 -157 -16 -198 -37 -15 -8 -37 -28 -47 -46 -43 -69
-13 -150 70 -195 41 -21 54 -23 137 -19 97 4 104 0 50 -33 -26 -16 -28 -20
-14 -26 26 -10 82 4 112 27 36 29 43 16 9 -17 l-29 -27 44 6 c24 3 65 19 92
36 27 16 49 26 49 20 0 -18 65 -49 104 -49 l40 0 -27 28 c-50 52 -25 105 61
127 70 19 144 1 184 -44 67 -75 5 -167 -124 -184 -55 -7 -207 5 -354 29 -93
15 -105 15 -156 0 -98 -28 -238 -16 -270 24 -10 12 -23 40 -30 61 -11 37 -10
41 12 56 l23 16 -21 8 c-29 11 -59 60 -80 132 -21 70 -48 107 -82 111 -14 1
-37 14 -52 29 -36 36 -57 36 -50 0 5 -27 5 -28 -15 -10 -12 10 -38 23 -59 28
-22 6 -47 20 -56 32 -22 27 -23 6 -3 -33 15 -29 15 -30 -5 -30 -12 0 -30 5
-41 10 -23 13 -24 2 -3 -28 14 -20 14 -22 -3 -22 -27 0 -63 -28 -57 -44 3 -9
-6 -19 -23 -28 -21 -10 -29 -21 -31 -48 -2 -19 -14 -46 -27 -60 -13 -14 -27
-38 -30 -55 -7 -29 -7 -30 10 -10 17 19 17 19 2 -5 -11 -19 -23 -25 -47 -23
-29 1 -30 0 -13 -12 11 -8 32 -17 47 -21 24 -6 26 -9 20 -43 -4 -20 -8 -37 -9
-39 -1 -1 -14 7 -28 18 -40 31 -81 123 -74 165 5 28 1 41 -20 65 -29 34 -47
39 -38 10 6 -20 5 -20 -31 2 -32 19 -37 20 -31 5 12 -33 -3 -49 -40 -42 -33 6
-33 5 -27 -22 4 -15 13 -35 20 -44 12 -13 12 -16 -3 -16 -10 0 -24 4 -30 10
-9 7 -13 5 -13 -6 0 -33 23 -63 70 -91 35 -21 51 -38 55 -58 8 -35 1 -46 -37
-56 -47 -12 -44 -28 9 -48 26 -9 52 -20 56 -24 5 -4 -13 -17 -39 -29 l-47 -23
44 -20 c24 -11 58 -24 74 -28 l30 -7 -40 -24 -40 -24 84 -3 c65 -2 90 -7 109
-22 30 -24 54 -25 115 -4 l46 16 30 -34 c17 -18 34 -43 37 -56 10 -37 -13
-185 -38 -249 -20 -51 -29 -61 -76 -86 -48 -26 -52 -31 -52 -64 0 -30 2 -34
15 -23 13 10 15 9 15 -9 0 -18 4 -21 21 -16 13 5 25 2 29 -6 7 -10 11 -10 24
0 12 10 19 11 30 2 10 -8 20 -8 42 4 16 8 34 15 40 15 6 0 17 15 25 33 17 38
41 42 49 7 l6 -25 9 25 c4 14 8 38 7 54 l-1 29 29 -34 29 -34 1 55 c0 42 3 51
11 38 20 -36 31 -18 27 46 -3 62 -2 63 17 50 35 -25 48 -18 30 16 -8 16 -15
37 -15 48 0 10 -6 27 -14 38 -13 17 -13 22 0 42 9 13 13 31 10 39 -5 11 -2 13
10 9 8 -3 20 -6 25 -6 6 0 16 -14 23 -32 l14 -31 7 41 c7 45 10 46 88 22 32
-10 33 -8 10 27 -17 26 -17 27 0 20 10 -4 25 -7 33 -7 8 0 18 -8 21 -17 4 -10
26 -46 50 -81 24 -35 43 -74 43 -87 0 -28 -34 -54 -125 -96 -45 -20 -69 -38
-80 -58 -19 -37 -19 -55 -1 -48 8 3 17 -1 20 -8 3 -8 12 -12 20 -9 8 3 16 1
19 -3 3 -5 34 -8 69 -6 55 2 66 6 85 30 l23 28 0 -29 c0 -28 1 -28 18 -13 27
24 35 21 28 -10 -6 -27 -5 -27 28 10 22 24 36 33 38 25 3 -8 12 0 22 19 24 47
19 126 -11 190 -18 38 -23 60 -18 82 8 36 15 39 32 12 7 -11 39 -29 72 -41 90
-33 121 -80 121 -184 0 -59 -18 -91 -55 -100 -15 -4 -30 -17 -35 -32 -14 -36
-12 -43 10 -37 14 4 20 0 20 -11 0 -10 5 -14 10 -11 6 4 8 10 5 15 -3 5 0 12
6 16 8 4 9 3 5 -4 -4 -7 -1 -12 8 -12 9 0 16 -8 16 -17 0 -13 3 -14 12 -5 14
14 58 16 58 3 0 -13 57 7 67 22 4 6 10 27 13 47 6 36 12 38 59 24 19 -6 22 -4
16 6 -5 7 -12 31 -15 52 l-8 39 22 -20 c12 -12 26 -21 30 -21 15 0 -1 90 -19
110 -20 22 -6 27 26 9 12 -6 27 -8 35 -5 12 5 12 9 -3 25 -10 10 -26 30 -35
44 -12 17 -29 27 -50 29 -29 3 -33 7 -36 35 -3 26 -8 33 -33 38 -44 10 -88 51
-93 88 -3 18 -7 60 -9 94 -5 62 -5 62 19 53 13 -5 38 -7 56 -3 27 5 29 7 13
13 -13 4 -3 7 25 6 25 0 59 3 75 8 l30 8 -34 14 c-19 8 -32 16 -30 18 2 3 31
11 64 18 66 15 130 5 165 -27 10 -9 20 -12 23 -8 8 12 -8 80 -23 98 -9 10 -7
23 9 54 29 56 27 98 -8 153 -20 31 -44 53 -77 69 -79 39 -176 33 -412 -25
-221 -54 -318 -62 -374 -29 -43 25 -67 67 -52 90 33 53 185 92 285 73 29 -6
81 -21 115 -35 75 -30 136 -32 204 -5 28 11 71 20 96 20 41 0 44 2 35 19 -6
10 -24 24 -41 31 -30 12 -30 13 -13 32 25 27 60 44 110 53 39 6 93 37 93 53 0
4 -28 7 -62 8 -35 1 -83 4 -108 8 -37 6 -53 3 -92 -17 l-47 -24 5 31 c3 17 7
39 9 49 5 25 -3 21 -20 -13z m-295 -179 c0 -4 -37 -11 -82 -13 -98 -7 -158
-29 -193 -70 -30 -35 -26 -58 13 -101 58 -61 169 -60 417 3 267 69 377 65 455
-15 27 -28 34 -44 38 -87 3 -44 0 -59 -20 -87 -51 -75 -130 -101 -310 -101
l-118 0 19 -47 c10 -27 21 -83 25 -126 9 -104 20 -125 79 -153 l49 -22 1 -144
c0 -93 -3 -151 -11 -165 -7 -12 -12 -32 -12 -46 0 -32 -8 -38 -31 -24 -13 8
-15 15 -7 24 7 9 7 13 0 13 -6 0 -17 -9 -25 -20 -9 -13 -20 -18 -31 -14 -16 6
-16 8 0 25 9 11 12 19 6 19 -6 0 -19 -12 -30 -27 l-19 -27 -8 23 c-5 16 -12
20 -28 16 -21 -5 -21 -5 -2 7 54 36 75 66 75 110 0 62 -27 146 -55 172 -14 13
-42 28 -64 35 -63 18 -97 53 -111 114 -15 60 -51 137 -74 156 -10 8 -5 -5 10
-33 28 -50 28 -50 -31 -36 -46 11 -182 -7 -304 -41 -59 -16 -76 -17 -82 -7
-13 21 -22 -18 -16 -66 6 -40 2 -50 -48 -126 -30 -45 -68 -116 -85 -159 -66
-160 -74 -170 -113 -155 -15 5 -14 9 6 25 27 22 10 25 -21 3 -12 -8 -22 -23
-22 -32 0 -14 -2 -15 -10 -2 -6 10 -4 20 8 34 17 18 16 18 -15 2 -18 -9 -33
-21 -33 -27 0 -5 -6 -4 -14 3 -11 11 -11 15 3 26 14 12 14 12 -6 7 -35 -10
-36 13 -1 28 18 8 41 23 50 34 23 25 55 118 63 180 3 26 8 68 11 93 l6 44 18
-23 17 -24 25 54 c14 30 33 63 42 74 13 17 15 18 16 3 0 -19 26 -48 43 -48 8
0 7 4 -1 12 -19 19 -14 47 19 105 28 48 33 53 48 40 32 -27 37 -26 33 7 -3 24
3 40 22 63 14 17 30 42 35 55 12 31 52 41 156 38 39 -1 99 6 137 16 66 17 71
17 233 -5 199 -28 332 -26 384 4 107 63 100 173 -14 226 -55 25 -99 24 -250
-10 -409 -92 -439 -94 -522 -46 -50 30 -66 55 -65 106 1 52 16 75 63 99 51 26
259 51 259 31z m-880 -111 c-9 -17 -30 -28 -30 -16 0 16 15 36 26 36 12 0 12
-4 4 -20z m221 1 c7 11 9 11 9 1 0 -7 4 -10 10 -7 16 10 59 -25 69 -58 5 -18
11 -57 13 -87 3 -53 2 -55 -27 -61 l-30 -7 28 -1 c32 -1 37 -20 5 -22 l-23 -2
23 -4 c21 -4 29 -22 16 -36 -4 -3 -16 -2 -28 4 -20 9 -20 9 -3 -5 18 -14 17
-16 -7 -55 -14 -22 -26 -55 -26 -73 -1 -31 -1 -32 -15 -14 -15 20 -15 20 -15
0 0 -10 -4 -25 -9 -33 -7 -11 -14 -9 -34 13 l-25 27 -16 -23 -16 -22 0 25 c0
14 -11 57 -24 96 -13 39 -21 75 -18 79 4 4 -1 4 -10 1 -13 -5 -18 -1 -18 13 0
11 9 20 23 23 16 3 13 5 -10 6 -24 1 -31 5 -27 15 4 12 12 13 31 5 14 -5 28
-8 30 -5 2 2 -10 8 -26 14 l-30 11 26 76 c27 80 62 120 86 96 15 -15 30 -14
21 2 -5 8 -2 8 9 -2 15 -12 17 -11 18 5 0 13 2 14 6 5 5 -11 7 -11 14 0z m169
-32 c0 -5 -9 -4 -19 3 -11 7 -17 16 -14 20 5 10 33 -10 33 -23z m-636 -76 c3
-4 6 5 6 19 0 17 7 27 20 31 18 5 20 0 20 -52 0 -46 6 -66 29 -102 15 -25 41
-55 56 -67 23 -18 25 -24 15 -37 -7 -8 -20 -15 -29 -15 -14 -1 -13 -2 2 -11
10 -6 29 -8 41 -5 21 5 24 1 30 -33 4 -25 16 -47 34 -63 71 -60 81 -109 26
-135 -57 -28 -76 -10 -184 175 -82 139 -102 166 -142 193 -47 30 -57 62 -17
52 24 -7 25 14 2 39 -13 14 -14 21 -4 31 9 9 17 5 37 -18 l25 -30 -5 42 c-7
49 15 68 25 21 4 -16 9 -32 13 -35z m1084 -454 c26 -9 32 -18 40 -56 6 -29 7
-56 1 -70 -14 -38 -11 -69 13 -118 l23 -46 -60 -52 c-33 -28 -78 -69 -99 -89
-31 -30 -42 -35 -53 -27 -11 10 -11 15 3 30 26 29 0 23 -29 -6 -27 -28 -49
-17 -25 13 12 15 10 15 -14 -1 -25 -15 -28 -16 -28 -2 0 9 -4 13 -10 10 -5 -3
-17 -2 -27 3 -14 8 1 19 74 56 90 45 123 74 123 107 0 10 -22 50 -50 91 -30
44 -50 84 -50 101 0 26 2 27 52 27 50 0 51 0 33 20 -18 20 -17 20 17 20 19 0
49 -5 66 -11z m-178 -29 c0 -5 -4 -10 -10 -10 -5 0 -10 5 -10 10 0 6 5 10 10
10 6 0 10 -4 10 -10z m-90 -400 c0 -5 -7 -10 -16 -10 -8 0 -12 5 -9 10 3 6 10
10 16 10 5 0 9 -4 9 -10z m-550 -70 c0 -5 -4 -10 -10 -10 -5 0 -10 5 -10 10 0
6 5 10 10 10 6 0 10 -4 10 -10z m30 -24 c0 -3 -4 -8 -10 -11 -5 -3 -10 -1 -10
4 0 6 5 11 10 11 6 0 10 -2 10 -4z m50 -10 c0 -3 -4 -8 -10 -11 -5 -3 -10 -1
-10 4 0 6 5 11 10 11 6 0 10 -2 10 -4z"/>
<path d="M627 1484 c-7 -7 24 -44 38 -44 5 0 3 5 -5 10 -9 6 -10 10 -3 10 21
0 24 -19 8 -49 -20 -39 -20 -38 13 -55 18 -9 35 -11 50 -5 37 14 25 29 -23 29
l-45 0 20 37 20 38 -22 17 c-24 18 -40 22 -51 12z"/>
<path d="M782 1473 c-6 -2 -10 -9 -7 -14 4 -5 -1 -6 -9 -3 -18 7 -20 -19 -5
-71 7 -26 8 -24 5 13 -4 39 -2 42 20 42 13 0 24 5 24 10 0 6 8 10 18 10 14 0
15 2 2 10 -16 10 -28 11 -48 3z"/>
<path d="M662 1313 c-19 -16 -20 -23 -12 -67 6 -27 11 -50 13 -51 1 -1 21 -5
45 -8 47 -6 55 2 67 65 7 34 5 39 -26 57 -42 26 -61 26 -87 4z m8 -19 c0 -8
-5 -12 -10 -9 -6 4 -8 11 -5 16 9 14 15 11 15 -7z m90 -4 c0 -5 -5 -10 -11
-10 -5 0 -7 5 -4 10 3 6 8 10 11 10 2 0 4 -4 4 -10z m-83 -82 c-3 -8 -6 -5 -6
6 -1 11 2 17 5 13 3 -3 4 -12 1 -19z m67 -3 c3 -8 1 -15 -4 -15 -6 0 -10 7
-10 15 0 8 2 15 4 15 2 0 6 -7 10 -15z"/>
</g>
</svg>
