<?xml version="1.0" standalone="no"?>
<!DOCTYPE svg PUBLIC "-//W3C//DTD SVG 20010904//EN"
 "http://www.w3.org/TR/2001/REC-SVG-20010904/DTD/svg10.dtd">
<svg version="1.0" xmlns="http://www.w3.org/2000/svg"
 width="112.000000pt" height="102.000000pt" viewBox="0 0 112.000000 102.000000"
 preserveAspectRatio="xMidYMid meet">

<g transform="translate(0.000000,102.000000) scale(0.100000,-0.100000)"
fill="#000000" stroke="none">
<path d="M0 625 c0 -285 3 -395 11 -395 8 0 7 -5 -1 -15 -9 -11 -10 -19 -3
-26 7 -7 19 -2 39 16 18 17 30 22 32 15 3 -7 -2 -16 -9 -21 -12 -7 -11 -9 1
-10 8 -1 21 -1 28 0 7 1 12 -11 12 -33 0 -23 9 -45 26 -65 l26 -31 413 0 413
0 26 31 c18 21 26 42 26 69 0 32 4 39 24 44 14 3 32 3 40 0 13 -5 16 1 16 28
0 19 -5 39 -12 46 -9 9 -9 12 -1 12 9 0 12 98 13 365 l0 365 -560 0 -560 0 0
-395z m980 308 l35 -18 5 -130 c3 -71 7 -250 8 -397 l3 -266 -27 -21 c-26 -21
-36 -21 -426 -21 -397 0 -429 2 -450 34 -4 6 -8 185 -8 397 l0 386 23 21 c26
24 36 25 532 30 242 2 274 1 305 -15z m67 -710 c-3 -10 -5 -4 -5 12 0 17 2 24
5 18 2 -7 2 -21 0 -30z"/>
<path d="M177 899 c-17 -10 -18 -33 -17 -342 1 -215 6 -337 12 -345 6 -7 8
-15 4 -19 -13 -13 50 -30 94 -25 25 2 92 7 150 11 58 4 111 11 118 15 7 4 29
2 48 -4 26 -9 38 -9 43 -1 5 7 20 4 46 -11 33 -18 54 -21 125 -19 57 1 90 7
101 17 8 8 20 14 26 14 6 0 13 6 16 13 3 6 12 -4 20 -23 16 -34 16 -29 17 125
0 88 3 250 7 361 6 189 5 202 -13 220 -18 18 -41 19 -399 22 -261 1 -386 -1
-398 -9z m498 -168 l0 -95 -29 -7 c-64 -17 -106 -85 -106 -172 0 -113 -139
-245 -276 -262 l-51 -6 -6 53 c-12 93 -9 128 11 134 39 12 88 39 104 59 20 23
23 45 7 45 -27 0 -69 42 -69 68 0 41 22 65 80 87 38 15 59 30 76 57 36 57 114
109 191 127 68 16 68 16 68 -88z m196 89 c17 -10 19 -22 19 -110 0 -89 2 -100
20 -110 32 -17 36 -57 10 -85 -22 -23 -23 -31 -21 -175 l2 -150 -105 0 -106 0
0 114 0 114 -62 -1 c-65 -2 -65 -2 -59 43 0 6 28 10 61 10 l60 0 2 93 c2 95 6
232 7 255 1 15 143 17 172 2z m-201 -584 c0 -3 -4 -8 -10 -11 -5 -3 -10 -1
-10 4 0 6 5 11 10 11 6 0 10 -2 10 -4z m-215 -16 c3 -5 1 -10 -4 -10 -6 0 -11
5 -11 10 0 6 2 10 4 10 3 0 8 -4 11 -10z m112 4 c-3 -3 -12 -4 -19 -1 -8 3 -5
6 6 6 11 1 17 -2 13 -5z"/>
<path d="M335 590 c-12 -4 -26 -15 -33 -23 -11 -13 -9 -19 9 -36 13 -12 26
-21 29 -21 4 0 11 20 17 45 11 47 10 49 -22 35z"/>
<path d="M456 461 c-3 -5 1 -14 8 -20 16 -13 32 2 21 19 -8 12 -22 13 -29 1z"/>
<path d="M791 480 c-73 -19 -89 -26 -79 -35 6 -6 168 43 168 50 0 6 -2 6 -89
-15z"/>
</g>
</svg>
